<?xml version="1.0" encoding="iso-8859-1"?>
<!-- Generator: Adobe Illustrator 19.0.0, SVG Export Plug-In . SVG Version: 6.00 Build 0)  -->
<svg version="1.1" id="Capa_1" xmlns="http://www.w3.org/2000/svg" xmlns:xlink="http://www.w3.org/1999/xlink" x="0px" y="0px"
	 viewBox="0 0 480 480" style="enable-background:new 0 0 480 480;" xml:space="preserve">
<g>
	<g>
		<path d="M191.28,84.64c-0.397-3.491-3.026-6.315-6.48-6.96l-20.32-3.76c-1.175-3.698-2.674-7.285-4.48-10.72l11.76-16.96
			c2.094-2.828,2.094-6.692,0-9.52c-4.687-5.942-10.058-11.313-16-16c-2.828-2.094-6.692-2.094-9.52,0L128.8,32
			c-3.435-1.806-7.022-3.305-10.72-4.48L114.32,7.2c-0.645-3.454-3.469-6.083-6.96-6.48c-7.543-0.96-15.177-0.96-22.72,0
			c-3.491,0.397-6.315,3.026-6.96,6.48l-3.76,20.32c-3.698,1.175-7.285,2.674-10.72,4.48L46.24,20.24
			c-2.828-2.094-6.692-2.094-9.52,0c-5.943,4.687-11.313,10.058-16,16c-2.094,2.828-2.094,6.692,0,9.52L32,63.2
			c-1.806,3.435-3.305,7.022-4.48,10.72L7.2,77.68c-3.454,0.645-6.083,3.469-6.48,6.96c-0.96,7.543-0.96,15.177,0,22.72
			c0.397,3.491,3.026,6.315,6.48,6.96l20.32,3.76c1.175,3.698,2.674,7.285,4.48,10.72l-11.76,16.96c-2.094,2.828-2.094,6.692,0,9.52
			c4.687,5.942,10.058,11.313,16,16c2.828,2.094,6.692,2.094,9.52,0L63.2,160c3.435,1.806,7.022,3.305,10.72,4.48l3.76,20.32
			c0.645,3.454,3.469,6.083,6.96,6.48c7.543,0.96,15.177,0.96,22.72,0c3.491-0.397,6.315-3.026,6.96-6.48l3.76-20.32
			c3.698-1.175,7.285-2.674,10.72-4.48l16.96,11.76c2.828,2.094,6.692,2.094,9.52,0c5.942-4.687,11.313-10.058,16-16
			c2.094-2.828,2.094-6.692,0-9.52L160,128.8c1.806-3.435,3.305-7.022,4.48-10.72l20.32-3.76c3.454-0.645,6.083-3.469,6.48-6.96
			C192.24,99.817,192.24,92.183,191.28,84.64z M176.16,96.16c0,1.2,0,2.4,0,3.68l-19.2,3.52c-3.107,0.576-5.583,2.927-6.32,6
			c-1.341,5.655-3.583,11.057-6.64,16c-1.723,2.651-1.723,6.069,0,8.72l11.04,16c-1.611,1.851-3.349,3.589-5.2,5.2l-16-11.04
			c-2.651-1.723-6.069-1.723-8.72,0c-4.943,3.057-10.345,5.299-16,6.64c-3.073,0.737-5.424,3.213-6,6.32L99.68,176
			c-2.56,0-4.8,0-7.36,0l-3.52-19.2c-0.576-3.107-2.927-5.583-6-6.32c-5.655-1.341-11.057-3.583-16-6.64
			c-2.651-1.723-6.069-1.723-8.72,0l-16,11.04c-1.851-1.611-3.589-3.349-5.2-5.2l11.04-16c1.723-2.651,1.723-6.069,0-8.72
			c-3.057-4.943-5.299-10.345-6.64-16c-0.737-3.073-3.213-5.424-6.32-6L16,99.68c0-1.28,0-2.48,0-3.68s0-2.4,0-3.68l19.28-3.52
			c3.107-0.576,5.583-2.927,6.32-6c1.341-5.655,3.583-11.057,6.64-16c1.582-2.66,1.489-5.993-0.24-8.56l-11.04-16
			c1.611-1.851,3.349-3.589,5.2-5.2L58.24,48c2.651,1.723,6.069,1.723,8.72,0c4.943-3.057,10.345-5.299,16-6.64
			c3.073-0.737,5.424-3.213,6-6.32L92.32,16h7.36l3.52,19.2c0.576,3.107,2.927,5.583,6,6.32c5.655,1.341,11.057,3.583,16,6.64
			c2.651,1.723,6.069,1.723,8.72,0l16-11.04c1.851,1.611,3.589,3.349,5.2,5.2L144,58.24c-1.723,2.651-1.723,6.069,0,8.72
			c3.057,4.943,5.299,10.345,6.64,16c0.737,3.073,3.213,5.424,6.32,6l19.2,3.52C176.16,93.76,176.16,94.96,176.16,96.16z"/>
	</g>
</g>
<g>
	<g>
		<path d="M479.28,228.64c-0.397-3.491-3.026-6.315-6.48-6.96l-20.32-3.76c-1.175-3.698-2.674-7.285-4.48-10.72l11.76-16.96
			c2.094-2.828,2.094-6.692,0-9.52c-4.687-5.942-10.058-11.313-16-16c-2.828-2.094-6.692-2.094-9.52,0L416.8,176
			c-3.435-1.806-7.022-3.305-10.72-4.48l-3.76-20.32c-0.645-3.454-3.469-6.083-6.96-6.48c-7.543-0.96-15.177-0.96-22.72,0
			c-3.491,0.397-6.315,3.026-6.96,6.48l-3.76,20.32c-3.698,1.175-7.285,2.674-10.72,4.48l-16.96-11.76
			c-2.828-2.094-6.692-2.094-9.52,0c-5.942,4.687-11.313,10.058-16,16c-2.094,2.828-2.094,6.692,0,9.52L320,207.2
			c-1.806,3.435-3.305,7.022-4.48,10.72l-20.32,3.76c-3.454,0.645-6.083,3.469-6.48,6.96c-0.96,7.543-0.96,15.177,0,22.72
			c0.397,3.491,3.026,6.315,6.48,6.96l20.32,3.76c1.175,3.698,2.674,7.285,4.48,10.72l-11.76,16.96c-2.094,2.828-2.094,6.692,0,9.52
			c4.687,5.942,10.058,11.313,16,16c2.828,2.094,6.692,2.094,9.52,0L351.2,304c3.435,1.806,7.022,3.305,10.72,4.48l3.76,20.32
			c0.645,3.454,3.469,6.083,6.96,6.48c7.543,0.96,15.177,0.96,22.72,0c3.491-0.397,6.315-3.026,6.96-6.48l3.76-20.32
			c3.698-1.175,7.285-2.674,10.72-4.48l16.96,11.76c2.828,2.094,6.692,2.094,9.52,0c5.942-4.687,11.313-10.058,16-16
			c2.094-2.828,2.094-6.692,0-9.52L448,272.8c1.806-3.435,3.305-7.022,4.48-10.72l20.32-3.76c3.454-0.645,6.083-3.469,6.48-6.96
			C480.24,243.817,480.24,236.183,479.28,228.64z M464.48,240c0,1.2-0.48,2.4-0.48,3.68l-19.2,3.52c-3.107,0.576-5.583,2.927-6.32,6
			c-1.341,5.655-3.583,11.058-6.64,16c-1.723,2.651-1.723,6.069,0,8.72l11.04,16c-1.611,1.851-3.349,3.589-5.2,5.2l-16-11.04
			c-2.651-1.723-6.069-1.723-8.72,0c-4.943,3.057-10.345,5.299-16,6.64c-3.073,0.737-5.424,3.213-6,6.32L387.68,320h-7.36
			l-3.52-19.2c-0.576-3.107-2.927-5.583-6-6.32c-5.655-1.341-11.057-3.583-16-6.64c-2.651-1.723-6.069-1.723-8.72,0l-16,11.04
			c-1.851-1.611-3.589-3.349-5.2-5.2l11.04-16c1.723-2.651,1.723-6.069,0-8.72c-3.057-4.943-5.299-10.345-6.64-16
			c-0.737-3.073-3.213-5.424-6.32-6L304,243.68c0-1.28,0-2.48,0-3.68c0-1.2,0-2.4,0-3.68l19.2-3.52c3.107-0.576,5.583-2.927,6.32-6
			c1.341-5.655,3.583-11.057,6.64-16c1.723-2.651,1.723-6.069,0-8.72l-11.04-16c1.611-1.851,3.349-3.589,5.2-5.2l16,11.04
			c2.651,1.723,6.069,1.723,8.72,0c4.943-3.057,10.345-5.299,16-6.64c3.073-0.737,5.424-3.213,6-6.32l3.52-19.2c2.56,0,4.8,0,7.36,0
			l3.52,19.2c0.576,3.107,2.927,5.583,6,6.32c5.655,1.341,11.057,3.583,16,6.64c2.651,1.723,6.069,1.723,8.72,0l16-11.04
			c1.851,1.611,3.589,3.349,5.2,5.2l-11.04,16c-1.723,2.651-1.723,6.069,0,8.72c3.057,4.943,5.299,10.345,6.64,16
			c0.737,3.073,3.213,5.424,6.32,6l19.2,3.52C464.48,237.6,464.48,238.8,464.48,240z"/>
	</g>
</g>
<g>
	<g>
		<path d="M191.28,372.64c-0.397-3.491-3.026-6.315-6.48-6.96l-20.32-3.76c-1.175-3.698-2.674-7.285-4.48-10.72l11.76-16.96
			c2.094-2.828,2.094-6.692,0-9.52c-4.687-5.942-10.058-11.313-16-16c-2.828-2.094-6.692-2.094-9.52,0L128.8,320
			c-3.435-1.806-7.022-3.305-10.72-4.48l-3.76-20.32c-0.645-3.454-3.469-6.083-6.96-6.48c-7.543-0.96-15.177-0.96-22.72,0
			c-3.491,0.397-6.315,3.026-6.96,6.48l-3.76,20.32c-3.698,1.175-7.285,2.674-10.72,4.48l-16.96-11.76
			c-2.828-2.094-6.692-2.094-9.52,0c-5.943,4.687-11.313,10.058-16,16c-2.094,2.828-2.094,6.692,0,9.52L32,351.2
			c-1.806,3.435-3.305,7.022-4.48,10.72L7.2,365.68c-3.454,0.645-6.083,3.469-6.48,6.96c-0.96,7.543-0.96,15.177,0,22.72
			c0.397,3.491,3.026,6.315,6.48,6.96l20.32,3.76c1.175,3.698,2.674,7.285,4.48,10.72l-11.76,16.96c-2.094,2.828-2.094,6.692,0,9.52
			c4.687,5.942,10.058,11.313,16,16c2.828,2.094,6.692,2.094,9.52,0L63.2,448c3.435,1.806,7.022,3.305,10.72,4.48l3.76,20.32
			c0.645,3.454,3.469,6.083,6.96,6.48c7.543,0.96,15.177,0.96,22.72,0c3.491-0.397,6.315-3.026,6.96-6.48l3.76-20.32
			c3.698-1.175,7.285-2.674,10.72-4.48l16.96,11.76c2.828,2.094,6.692,2.094,9.52,0c5.942-4.687,11.313-10.058,16-16
			c2.094-2.828,2.094-6.692,0-9.52L160,416.8c1.806-3.435,3.305-7.022,4.48-10.72l20.32-3.76c3.454-0.645,6.083-3.469,6.48-6.96
			C192.24,387.817,192.24,380.183,191.28,372.64z M176.48,384c0,1.2,0,2.4,0,3.68l-19.2,3.52c-3.107,0.576-5.583,2.927-6.32,6
			c-1.341,5.655-3.583,11.057-6.64,16c-1.723,2.651-1.723,6.069,0,8.72l11.04,16c-1.611,1.851-3.349,3.589-5.2,5.2l-16-11.04
			c-2.651-1.723-6.069-1.723-8.72,0c-4.943,3.057-10.345,5.299-16,6.64c-3.073,0.737-5.424,3.213-6,6.32L99.68,464h-7.36l-3.52-19.2
			c-0.576-3.107-2.927-5.583-6-6.32c-5.655-1.341-11.057-3.583-16-6.64c-2.651-1.723-6.069-1.723-8.72,0l-16,11.04
			c-1.851-1.611-3.589-3.349-5.2-5.2l11.04-16c1.723-2.651,1.723-6.069,0-8.72c-3.057-4.943-5.299-10.345-6.64-16
			c-0.737-3.073-3.213-5.424-6.32-6L16,387.68c0-1.28,0-2.48,0-3.68c0-1.2,0-2.4,0-3.68l19.2-3.52c3.107-0.576,5.583-2.927,6.32-6
			c1.341-5.655,3.583-11.057,6.64-16c1.723-2.651,1.723-6.069,0-8.72l-11.04-16c1.611-1.851,3.349-3.589,5.2-5.2l16,11.04
			c2.651,1.723,6.069,1.723,8.72,0c4.943-3.057,10.345-5.299,16-6.64c3.073-0.737,5.424-3.213,6-6.32l3.52-19.2h7.36l3.52,19.2
			c0.576,3.107,2.927,5.583,6,6.32c5.655,1.341,11.057,3.583,16,6.64c2.651,1.723,6.069,1.723,8.72,0l16-11.04
			c1.851,1.611,3.589,3.349,5.2,5.2l-11.04,16c-1.723,2.651-1.723,6.069,0,8.72c3.057,4.943,5.299,10.345,6.64,16
			c0.737,3.073,3.213,5.424,6.32,6l19.2,3.52C176.48,381.6,176.48,382.8,176.48,384z"/>
	</g>
</g>
<g>
	<g>
		<rect x="191.242" y="51.464" transform="matrix(0.4302 -0.9027 0.9027 0.4302 59.8476 213.7453)" width="16" height="16"/>
	</g>
</g>
<g>
	<g>
		<rect x="277.894" y="92.695" transform="matrix(0.4299 -0.9029 0.9029 0.4299 72.0792 315.5393)" width="16" height="16"/>
	</g>
</g>
<g>
	<g>
		<rect x="220.103" y="65.248" transform="matrix(0.4299 -0.9029 0.9029 0.4299 63.9121 247.7112)" width="16" height="16"/>
	</g>
</g>
<g>
	<g>
		<rect x="335.652" y="120.214" transform="matrix(0.4299 -0.9029 0.9029 0.4299 80.1599 383.3759)" width="16" height="16"/>
	</g>
</g>
<g>
	<g>
		<rect x="306.813" y="106.455" transform="matrix(0.4299 -0.9029 0.9029 0.4299 76.1426 349.494)" width="16" height="16"/>
	</g>
</g>
<g>
	<g>
		<rect x="249.056" y="78.935" transform="matrix(0.4299 -0.9029 0.9029 0.4299 68.0607 281.6562)" width="16" height="16"/>
	</g>
</g>
<g>
	<g>
		<polygon points="235.76,237.84 228.08,223.84 214.08,231.52 216.88,236.64 211.2,248.48 225.68,255.36 232.56,240.96 
			231.28,240.32 		"/>
	</g>
</g>
<g>
	<g>
		<rect x="156.069" y="209.277" transform="matrix(0.4302 -0.9027 0.9027 0.4302 -102.6564 271.9164)" width="16" height="16"/>
	</g>
</g>
<g>
	<g>
		<rect x="242.801" y="250.51" transform="matrix(0.4302 -0.9027 0.9027 0.4302 -90.4587 373.7072)" width="16" height="16"/>
	</g>
</g>
<g>
	<g>
		<rect x="271.727" y="264.278" transform="matrix(0.4302 -0.9027 0.9027 0.4302 -86.4059 407.6649)" width="16" height="16"/>
	</g>
</g>
<g>
	<g>
		<rect x="127.223" y="195.509" transform="matrix(0.4302 -0.9027 0.9027 0.4302 -106.6637 238.0309)" width="16" height="16"/>
	</g>
</g>
<g>
	<g>
		<rect x="275.121" y="365.907" transform="matrix(0.8762 -0.4819 0.4819 0.8762 -145.1449 182.7211)" width="16" height="16"/>
	</g>
</g>
<g>
	<g>
		<rect x="331.244" y="335.021" transform="matrix(0.8761 -0.4821 0.4821 0.8761 -123.3374 206.0223)" width="16" height="16"/>
	</g>
</g>
<g>
	<g>
		<rect x="247.148" y="381.266" transform="matrix(0.8761 -0.4821 0.4821 0.8761 -156.0464 171.212)" width="16" height="16"/>
	</g>
</g>
<g>
	<g>
		<rect x="303.214" y="350.452" transform="matrix(0.8763 -0.4818 0.4818 0.8763 -134.1898 194.2651)" width="16" height="16"/>
	</g>
</g>
<g>
	<g>
		<rect x="191.012" y="412.142" transform="matrix(0.8762 -0.4819 0.4819 0.8762 -177.8373 147.911)" width="16" height="16"/>
	</g>
</g>
<g>
	<g>
		<rect x="219.029" y="396.73" transform="matrix(0.8761 -0.4821 0.4821 0.8761 -166.9846 159.5736)" width="16" height="16"/>
	</g>
</g>
<g>
	<g>
		<polygon points="200,239.28 197.2,240.8 203.68,227.2 189.2,220.32 182.32,234.72 196.24,241.36 186,246.96 193.68,260.96 
			207.76,253.28 		"/>
	</g>
</g>
<g>
	<g>
		<rect x="272.945" y="195.84" transform="matrix(0.8762 -0.4819 0.4819 0.8762 -63.4574 160.6217)" width="16" height="16"/>
	</g>
</g>
<g>
	<g>
		<rect x="132.771" y="272.911" transform="matrix(0.8761 -0.4821 0.4821 0.8761 -117.9797 102.6539)" width="16" height="16"/>
	</g>
</g>
<g>
	<g>
		<rect x="160.764" y="257.591" transform="matrix(0.8763 -0.4817 0.4817 0.8763 -107.0737 114.1531)" width="16" height="16"/>
	</g>
</g>
<g>
	<g>
		<rect x="244.972" y="211.262" transform="matrix(0.8762 -0.4819 0.4819 0.8762 -74.3519 149.0489)" width="16" height="16"/>
	</g>
</g>
<g>
	<g>
		<path d="M96,56c-22.091,0-40,17.909-40,40s17.909,40,40,40s40-17.909,40-40S118.091,56,96,56z M96,120c-13.255,0-24-10.745-24-24
			s10.745-24,24-24s24,10.745,24,24S109.255,120,96,120z"/>
	</g>
</g>
<g>
	<g>
		<path d="M384,200c-22.091,0-40,17.909-40,40s17.909,40,40,40c22.091,0,40-17.909,40-40S406.091,200,384,200z M384,264
			c-13.255,0-24-10.745-24-24s10.745-24,24-24s24,10.745,24,24S397.255,264,384,264z"/>
	</g>
</g>
<g>
	<g>
		<path d="M96,344c-22.091,0-40,17.909-40,40c0,22.091,17.909,40,40,40s40-17.909,40-40C136,361.908,118.091,344,96,344z M96,408
			c-13.255,0-24-10.745-24-24s10.745-24,24-24s24,10.745,24,24S109.255,408,96,408z"/>
	</g>
</g>
<g>
</g>
<g>
</g>
<g>
</g>
<g>
</g>
<g>
</g>
<g>
</g>
<g>
</g>
<g>
</g>
<g>
</g>
<g>
</g>
<g>
</g>
<g>
</g>
<g>
</g>
<g>
</g>
<g>
</g>
</svg>
