<?xml version="1.0" encoding="utf-8"?>
<!-- Generator: Adobe Illustrator 27.8.1, SVG Export Plug-In . SVG Version: 6.00 Build 0)  -->
<svg version="1.1" id="Слой_1" xmlns="http://www.w3.org/2000/svg" xmlns:xlink="http://www.w3.org/1999/xlink" x="0px" y="0px"
	 viewBox="0 0 1600 900" style="enable-background:new 0 0 1600 900;" xml:space="preserve">
<style type="text/css">
	.st0{fill:#FFFFFF;}
</style>
<g>
	<g>
		<path class="st0" d="M428.5,505.3v-140h20.6v140H428.5z M446.7,463.7v-25.2l85.6-73.2h30.2L446.7,463.7z M537.7,505.3l-63.2-69.6
			l15.6-13.4l75.6,83H537.7z"/>
		<path class="st0" d="M653.3,507.3c-14.67,0-27.87-2.9-39.6-8.7c-11.73-5.8-20.97-14.07-27.7-24.8
			c-6.73-10.73-10.1-23.56-10.1-38.5c0-14.93,3.37-27.77,10.1-38.5c6.73-10.73,15.97-19,27.7-24.8c11.73-5.8,24.93-8.7,39.6-8.7
			c14.8,0,28,2.9,39.6,8.7c11.6,5.8,20.77,14.07,27.5,24.8c6.73,10.73,10.1,23.57,10.1,38.5c0,14.93-3.37,27.77-10.1,38.5
			c-6.73,10.73-15.9,19-27.5,24.8C681.3,504.4,668.1,507.3,653.3,507.3z M651.7,488.9h3.2c10,0,19.13-2.1,27.4-6.3
			c8.27-4.2,14.9-10.3,19.9-18.3s7.5-17.67,7.5-29c0-11.33-2.5-21-7.5-29s-11.63-14.1-19.9-18.3c-8.27-4.2-17.4-6.3-27.4-6.3h-3.2
			c-9.87,0-19,2.1-27.4,6.3c-8.4,4.2-15.1,10.3-20.1,18.3s-7.5,17.67-7.5,29c0,11.33,2.5,21,7.5,29s11.7,14.1,20.1,18.3
			C632.7,486.8,641.83,488.9,651.7,488.9z"/>
		<path class="st0" d="M760.3,505.3v-140h76c8.93,0,16.83,1.67,23.7,5c6.87,3.33,12.27,7.87,16.2,13.6c3.93,5.73,5.9,12.27,5.9,19.6
			c0,6-1.07,11.33-3.2,16c-2.13,4.67-4.9,8.53-8.3,11.6c-3.4,3.07-7.03,5.27-10.9,6.6c7.33,0,12.43,1.67,15.3,5
			c2.87,3.33,4.3,8.54,4.3,15.6v47h-20.6v-42c0-5.46-1-9.17-3-11.1c-2-1.93-5.73-2.9-11.2-2.9h-63.6v56H760.3z M780.9,430.9h52.4
			c8.8,0,15.67-2.27,20.6-6.8c4.93-4.53,7.4-10.27,7.4-17.2c0-7.47-2.47-13.2-7.4-17.2c-4.93-4-11.8-6-20.6-6h-52.4V430.9z"/>
		<path class="st0" d="M976.9,507.3c-20.67,0-36.1-5.17-46.3-15.5c-10.2-10.33-15.3-24.23-15.3-41.7v-84.8h20.6v83.2
			c0,13.2,3.37,23.23,10.1,30.1c6.73,6.87,16.5,10.3,29.3,10.3h3.2c12.8,0,22.57-3.43,29.3-10.3c6.73-6.87,10.1-16.9,10.1-30.1
			v-83.2h20.6v84.8c0,17.47-5.2,31.37-15.6,41.7C1012.5,502.13,997.17,507.3,976.9,507.3z"/>
		<path class="st0" d="M1130.3,507.3c-20.27,0-36.3-3.93-48.1-11.8c-11.8-7.87-17.83-19.6-18.1-35.2h22c0.4,9.47,4.4,16.6,12,21.4
			c7.6,4.8,17.73,7.2,30.4,7.2h3.2c13.07,0,22.46-1.97,28.2-5.9c5.73-3.93,8.6-9.1,8.6-15.5c0-5.33-2.33-9.73-7-13.2
			c-4.67-3.47-12.53-6.06-23.6-7.8l-21.8-3.6c-15.33-2.53-26.53-6.77-33.6-12.7c-7.07-5.93-10.6-15.03-10.6-27.3c0-6.67,2-13,6-19
			s10.23-10.93,18.7-14.8c8.47-3.87,19.37-5.8,32.7-5.8c18.8,0,33.63,3.93,44.5,11.8c10.87,7.87,16.97,18.6,18.3,32.2h-22
			c-1.2-8.27-5.23-14.6-12.1-19c-6.87-4.4-15.9-6.6-27.1-6.6h-3.2c-11.2,0-19.83,1.97-25.9,5.9c-6.07,3.93-9.1,8.83-9.1,14.7
			c0,5.73,2.2,10.17,6.6,13.3c4.4,3.13,11.27,5.43,20.6,6.9l22.4,3.6c15.73,2.53,27.5,7.13,35.3,13.8c7.8,6.67,11.7,15.33,11.7,26
			c0,13.33-5.07,23.57-15.2,30.7C1163.96,503.73,1149.36,507.3,1130.3,507.3z"/>
	</g>
</g>
</svg>
